<svg width="14" height="15" viewBox="0 0 14 15" fill="none" xmlns="http://www.w3.org/2000/svg">
<g clip-path="url(#clip0_6314_2967)">
<path d="M12.5017 9.64258L11.1689 8.88466L12.3188 8.2052C12.5278 8.07453 12.6062 7.80013 12.4756 7.59106C12.358 7.382 12.0836 7.3036 11.8614 7.43426L10.2804 8.362L7.88916 6.99L10.2804 5.60493L11.8614 6.54573C11.9398 6.58493 12.0182 6.61106 12.0966 6.61106C12.2404 6.61106 12.3972 6.53266 12.4756 6.38893C12.6062 6.17986 12.5278 5.90546 12.3188 5.7748L11.1689 5.09533L12.5017 4.33746C12.7108 4.2068 12.7761 3.9324 12.6585 3.72333C12.5409 3.51426 12.2665 3.43586 12.0444 3.55346L10.7246 4.3244L10.7116 2.9916C10.7116 2.74333 10.5025 2.54733 10.2673 2.54733C10.019 2.54733 9.82303 2.7564 9.82303 3.00466L9.8361 4.834L7.44489 6.21906V3.462L9.05209 2.5604C9.26116 2.42973 9.33956 2.15533 9.22196 1.94626C9.09129 1.7372 8.82996 1.6588 8.60782 1.7764L7.44489 2.42973V0.900932C7.44489 0.652665 7.24889 0.456665 7.00062 0.456665C6.75236 0.456665 6.55636 0.652665 6.55636 0.900932V2.42973L5.39342 1.7764C5.18436 1.6588 4.90996 1.7372 4.77929 1.94626C4.66169 2.15533 4.74009 2.42973 4.94916 2.5604L6.55636 3.462V6.21906L4.16516 4.834L4.17822 3.00466C4.19129 2.7564 3.98222 2.54733 3.74702 2.54733C3.73396 2.54733 3.73396 2.54733 3.73396 2.54733C3.49876 2.54733 3.28969 2.74333 3.28969 2.9916L3.27662 4.3244L1.95689 3.55346C1.73476 3.43586 1.46036 3.51426 1.34276 3.72333C1.22516 3.9324 1.29049 4.2068 1.51262 4.33746L2.83236 5.09533L1.68249 5.7748C1.47342 5.90546 1.39502 6.17986 1.52569 6.38893C1.60409 6.53266 1.76089 6.61106 1.90462 6.61106C1.98302 6.61106 2.06142 6.58493 2.13982 6.54573L3.72089 5.60493L6.11209 6.99L3.72089 8.37506L2.13982 7.43426C1.91769 7.3036 1.65636 7.382 1.52569 7.59106C1.39502 7.80013 1.47342 8.07453 1.68249 8.2052L2.83236 8.88466L1.51262 9.64258C1.29049 9.77324 1.22516 10.0476 1.34276 10.2567C1.42116 10.4004 1.57796 10.4788 1.73476 10.4788C1.80009 10.4788 1.87849 10.4658 1.95689 10.4135L3.27662 9.65564L3.28969 10.9884C3.28969 11.2367 3.49876 11.4327 3.73396 11.4327C3.73396 11.4327 3.73396 11.4327 3.74702 11.4327C3.98222 11.4327 4.19129 11.2236 4.17822 10.9754L4.16516 9.146L6.55636 7.76093V10.518L4.94916 11.4196C4.74009 11.5503 4.66169 11.8247 4.77929 12.0338C4.87076 12.1775 5.01449 12.2559 5.17129 12.2559C5.24969 12.2559 5.32809 12.2428 5.39342 12.2036L6.55636 11.5503V13.0791C6.55636 13.3274 6.75236 13.5234 7.00062 13.5234C7.24889 13.5234 7.44489 13.3274 7.44489 13.0791V11.5503L8.60782 12.2036C8.67316 12.2428 8.75156 12.2559 8.82996 12.2559C8.98676 12.2559 9.13049 12.1775 9.22196 12.0338C9.33956 11.8247 9.26116 11.5503 9.05209 11.4196L7.44489 10.518V7.76093L9.8361 9.146L9.82303 10.9754C9.82303 11.2236 10.019 11.4327 10.2542 11.4327C10.2673 11.4327 10.2673 11.4327 10.2673 11.4327C10.5156 11.4327 10.7116 11.2367 10.7116 10.9884L10.7246 9.65564L12.0444 10.4135C12.1228 10.4658 12.2012 10.4788 12.2665 10.4788C12.4233 10.4788 12.5801 10.4004 12.6585 10.2567C12.7761 10.0476 12.7108 9.77324 12.5017 9.64258Z" fill="#0891B2"/>
</g>
<defs>
<clipPath id="clip0_6314_2967">
<rect width="14" height="14" fill="white" transform="translate(0 0.27002)"/>
</clipPath>
</defs>
</svg>
