<svg width="67" height="11" viewBox="0 0 67 11" fill="none" xmlns="http://www.w3.org/2000/svg">
<g clip-path="url(#clip0_6314_3949)">
<g clip-path="url(#clip1_6314_3949)">
<path d="M6.29346 0.385243C6.2348 0.26791 6.15046 0.17441 6.04046 0.104743C5.93046 0.0350761 5.80946 0.000243187 5.67746 0.000243187C5.54546 0.000243187 5.42263 0.0350761 5.30896 0.104743C5.19529 0.17441 5.10913 0.26791 5.05046 0.385243L3.67546 3.23424L0.584462 3.68524C0.459795 3.69991 0.346128 3.74941 0.243462 3.83374C0.140795 3.91808 0.0711285 4.02258 0.0344618 4.14724C-0.00220486 4.27191 -0.00587153 4.39841 0.0234618 4.52674C0.0527951 4.65508 0.115128 4.76324 0.210462 4.85124L2.44346 7.07324L1.91546 10.1972C1.89346 10.3292 1.90813 10.4539 1.95946 10.5712C2.0108 10.6886 2.0878 10.7876 2.19046 10.8682C2.29313 10.9489 2.41046 10.9929 2.54246 11.0002C2.67446 11.0076 2.79913 10.9819 2.91646 10.9232L5.67746 9.44924L8.43846 10.9232C8.55579 10.9819 8.67863 11.0076 8.80696 11.0002C8.9353 10.9929 9.05446 10.9507 9.16446 10.8737C9.27446 10.7967 9.3533 10.6977 9.40096 10.5767C9.44863 10.4557 9.46146 10.3292 9.43946 10.1972L8.90046 7.07324L11.1445 4.85124C11.2398 4.76324 11.3021 4.65508 11.3315 4.52674C11.3608 4.39841 11.3535 4.27191 11.3095 4.14724C11.2655 4.02258 11.1958 3.91808 11.1005 3.83374C11.0051 3.74941 10.8915 3.69991 10.7595 3.68524L7.67946 3.23424L6.29346 0.385243Z" fill="#D1D5DB"/>
<path d="M19.6685 0.385243C19.6098 0.26791 19.5255 0.17441 19.4155 0.104743C19.3055 0.0350761 19.1845 0.000243187 19.0525 0.000243187C18.9205 0.000243187 18.7976 0.0350761 18.684 0.104743C18.5703 0.17441 18.4841 0.26791 18.4255 0.385243L17.0505 3.23424L13.9595 3.68524C13.8348 3.69991 13.7211 3.74941 13.6185 3.83374C13.5158 3.91808 13.4461 4.02258 13.4095 4.14724C13.3728 4.27191 13.3691 4.39841 13.3985 4.52674C13.4278 4.65508 13.4901 4.76324 13.5855 4.85124L15.8185 7.07324L15.2905 10.1972C15.2685 10.3292 15.2831 10.4539 15.3345 10.5712C15.3858 10.6886 15.4628 10.7876 15.5655 10.8682C15.6681 10.9489 15.7855 10.9929 15.9175 11.0002C16.0495 11.0076 16.1741 10.9819 16.2915 10.9232L19.0525 9.44924L21.8135 10.9232C21.9308 10.9819 22.0536 11.0076 22.182 11.0002C22.3103 10.9929 22.4295 10.9507 22.5395 10.8737C22.6495 10.7967 22.7283 10.6977 22.776 10.5767C22.8236 10.4557 22.8365 10.3292 22.8145 10.1972L22.2755 7.07324L24.5195 4.85124C24.6148 4.76324 24.6771 4.65508 24.7065 4.52674C24.7358 4.39841 24.7285 4.27191 24.6845 4.14724C24.6405 4.02258 24.5708 3.91808 24.4755 3.83374C24.3801 3.74941 24.2665 3.69991 24.1345 3.68524L21.0545 3.23424L19.6685 0.385243Z" fill="#D1D5DB"/>
<path d="M33.0435 0.385243C32.9848 0.26791 32.9005 0.17441 32.7905 0.104743C32.6805 0.0350761 32.5595 0.000243187 32.4275 0.000243187C32.2955 0.000243187 32.1726 0.0350761 32.059 0.104743C31.9453 0.17441 31.8591 0.26791 31.8005 0.385243L30.4255 3.23424L27.3345 3.68524C27.2098 3.69991 27.0961 3.74941 26.9935 3.83374C26.8908 3.91808 26.8211 4.02258 26.7845 4.14724C26.7478 4.27191 26.7441 4.39841 26.7735 4.52674C26.8028 4.65508 26.8651 4.76324 26.9605 4.85124L29.1935 7.07324L28.6655 10.1972C28.6435 10.3292 28.6581 10.4539 28.7095 10.5712C28.7608 10.6886 28.8378 10.7876 28.9405 10.8682C29.0431 10.9489 29.1605 10.9929 29.2925 11.0002C29.4245 11.0076 29.5491 10.9819 29.6665 10.9232L32.4275 9.44924L35.1885 10.9232C35.3058 10.9819 35.4286 11.0076 35.557 11.0002C35.6853 10.9929 35.8045 10.9507 35.9145 10.8737C36.0245 10.7967 36.1033 10.6977 36.151 10.5767C36.1986 10.4557 36.2115 10.3292 36.1895 10.1972L35.6505 7.07324L37.8945 4.85124C37.9898 4.76324 38.0521 4.65508 38.0815 4.52674C38.1108 4.39841 38.1035 4.27191 38.0595 4.14724C38.0155 4.02258 37.9458 3.91808 37.8505 3.83374C37.7551 3.74941 37.6415 3.69991 37.5095 3.68524L34.4295 3.23424L33.0435 0.385243Z" fill="#D1D5DB"/>
<path d="M46.4185 0.385243C46.3598 0.26791 46.2755 0.17441 46.1655 0.104743C46.0555 0.0350761 45.9345 0.000243187 45.8025 0.000243187C45.6705 0.000243187 45.5476 0.0350761 45.434 0.104743C45.3203 0.17441 45.2341 0.26791 45.1755 0.385243L43.8005 3.23424L40.7095 3.68524C40.5848 3.69991 40.4711 3.74941 40.3685 3.83374C40.2658 3.91808 40.1961 4.02258 40.1595 4.14724C40.1228 4.27191 40.1191 4.39841 40.1485 4.52674C40.1778 4.65508 40.2401 4.76324 40.3355 4.85124L42.5685 7.07324L42.0405 10.1972C42.0185 10.3292 42.0331 10.4539 42.0845 10.5712C42.1358 10.6886 42.2128 10.7876 42.3155 10.8682C42.4181 10.9489 42.5355 10.9929 42.6675 11.0002C42.7995 11.0076 42.9241 10.9819 43.0415 10.9232L45.8025 9.44924L48.5635 10.9232C48.6808 10.9819 48.8036 11.0076 48.932 11.0002C49.0603 10.9929 49.1795 10.9507 49.2895 10.8737C49.3995 10.7967 49.4783 10.6977 49.526 10.5767C49.5736 10.4557 49.5865 10.3292 49.5645 10.1972L49.0255 7.07324L51.2695 4.85124C51.3648 4.76324 51.4271 4.65508 51.4565 4.52674C51.4858 4.39841 51.4785 4.27191 51.4345 4.14724C51.3905 4.02258 51.3208 3.91808 51.2255 3.83374C51.1301 3.74941 51.0165 3.69991 50.8845 3.68524L47.8045 3.23424L46.4185 0.385243Z" fill="#D1D5DB"/>
<path d="M59.7935 0.385243C59.7348 0.26791 59.6505 0.17441 59.5405 0.104743C59.4305 0.0350761 59.3095 0.000243187 59.1775 0.000243187C59.0455 0.000243187 58.9226 0.0350761 58.809 0.104743C58.6953 0.17441 58.6091 0.26791 58.5505 0.385243L57.1755 3.23424L54.0845 3.68524C53.9598 3.69991 53.8461 3.74941 53.7435 3.83374C53.6408 3.91808 53.5711 4.02258 53.5345 4.14724C53.4978 4.27191 53.4941 4.39841 53.5235 4.52674C53.5528 4.65508 53.6151 4.76324 53.7105 4.85124L55.9435 7.07324L55.4155 10.1972C55.3935 10.3292 55.4081 10.4539 55.4595 10.5712C55.5108 10.6886 55.5878 10.7876 55.6905 10.8682C55.7931 10.9489 55.9105 10.9929 56.0425 11.0002C56.1745 11.0076 56.2991 10.9819 56.4165 10.9232L59.1775 9.44924L61.9385 10.9232C62.0558 10.9819 62.1786 11.0076 62.307 11.0002C62.4353 10.9929 62.5545 10.9507 62.6645 10.8737C62.7745 10.7967 62.8533 10.6977 62.901 10.5767C62.9486 10.4557 62.9615 10.3292 62.9395 10.1972L62.4005 7.07324L64.6445 4.85124C64.7398 4.76324 64.8021 4.65508 64.8315 4.52674C64.8608 4.39841 64.8535 4.27191 64.8095 4.14724C64.7655 4.02258 64.6958 3.91808 64.6005 3.83374C64.5051 3.74941 64.3915 3.69991 64.2595 3.68524L61.1795 3.23424L59.7935 0.385243Z" fill="#D1D5DB"/>
</g>
<g clip-path="url(#clip2_6314_3949)">
<g clip-path="url(#clip3_6314_3949)">
<path d="M6.29346 0.385243C6.2348 0.26791 6.15046 0.17441 6.04046 0.104743C5.93046 0.0350761 5.80946 0.000243187 5.67746 0.000243187C5.54546 0.000243187 5.42263 0.0350761 5.30896 0.104743C5.19529 0.17441 5.10913 0.26791 5.05046 0.385243L3.67546 3.23424L0.584462 3.68524C0.459795 3.69991 0.346128 3.74941 0.243462 3.83374C0.140795 3.91808 0.0711285 4.02258 0.0344618 4.14724C-0.00220486 4.27191 -0.00587153 4.39841 0.0234618 4.52674C0.0527951 4.65508 0.115128 4.76324 0.210462 4.85124L2.44346 7.07324L1.91546 10.1972C1.89346 10.3292 1.90813 10.4539 1.95946 10.5712C2.0108 10.6886 2.0878 10.7876 2.19046 10.8682C2.29313 10.9489 2.41046 10.9929 2.54246 11.0002C2.67446 11.0076 2.79913 10.9819 2.91646 10.9232L5.67746 9.44924L8.43846 10.9232C8.55579 10.9819 8.67863 11.0076 8.80696 11.0002C8.9353 10.9929 9.05446 10.9507 9.16446 10.8737C9.27446 10.7967 9.3533 10.6977 9.40096 10.5767C9.44863 10.4557 9.46146 10.3292 9.43946 10.1972L8.90046 7.07324L11.1445 4.85124C11.2398 4.76324 11.3021 4.65508 11.3315 4.52674C11.3608 4.39841 11.3535 4.27191 11.3095 4.14724C11.2655 4.02258 11.1958 3.91808 11.1005 3.83374C11.0051 3.74941 10.8915 3.69991 10.7595 3.68524L7.67946 3.23424L6.29346 0.385243Z" fill="#FACC15"/>
<path d="M19.6685 0.385243C19.6098 0.26791 19.5255 0.17441 19.4155 0.104743C19.3055 0.0350761 19.1845 0.000243187 19.0525 0.000243187C18.9205 0.000243187 18.7976 0.0350761 18.684 0.104743C18.5703 0.17441 18.4841 0.26791 18.4255 0.385243L17.0505 3.23424L13.9595 3.68524C13.8348 3.69991 13.7211 3.74941 13.6185 3.83374C13.5158 3.91808 13.4461 4.02258 13.4095 4.14724C13.3728 4.27191 13.3691 4.39841 13.3985 4.52674C13.4278 4.65508 13.4901 4.76324 13.5855 4.85124L15.8185 7.07324L15.2905 10.1972C15.2685 10.3292 15.2831 10.4539 15.3345 10.5712C15.3858 10.6886 15.4628 10.7876 15.5655 10.8682C15.6681 10.9489 15.7855 10.9929 15.9175 11.0002C16.0495 11.0076 16.1741 10.9819 16.2915 10.9232L19.0525 9.44924L21.8135 10.9232C21.9308 10.9819 22.0536 11.0076 22.182 11.0002C22.3103 10.9929 22.4295 10.9507 22.5395 10.8737C22.6495 10.7967 22.7283 10.6977 22.776 10.5767C22.8236 10.4557 22.8365 10.3292 22.8145 10.1972L22.2755 7.07324L24.5195 4.85124C24.6148 4.76324 24.6771 4.65508 24.7065 4.52674C24.7358 4.39841 24.7285 4.27191 24.6845 4.14724C24.6405 4.02258 24.5708 3.91808 24.4755 3.83374C24.3801 3.74941 24.2665 3.69991 24.1345 3.68524L21.0545 3.23424L19.6685 0.385243Z" fill="#FACC15"/>
<path d="M33.0435 0.385243C32.9848 0.26791 32.9005 0.17441 32.7905 0.104743C32.6805 0.0350761 32.5595 0.000243187 32.4275 0.000243187C32.2955 0.000243187 32.1726 0.0350761 32.059 0.104743C31.9453 0.17441 31.8591 0.26791 31.8005 0.385243L30.4255 3.23424L27.3345 3.68524C27.2098 3.69991 27.0961 3.74941 26.9935 3.83374C26.8908 3.91808 26.8211 4.02258 26.7845 4.14724C26.7478 4.27191 26.7441 4.39841 26.7735 4.52674C26.8028 4.65508 26.8651 4.76324 26.9605 4.85124L29.1935 7.07324L28.6655 10.1972C28.6435 10.3292 28.6581 10.4539 28.7095 10.5712C28.7608 10.6886 28.8378 10.7876 28.9405 10.8682C29.0431 10.9489 29.1605 10.9929 29.2925 11.0002C29.4245 11.0076 29.5491 10.9819 29.6665 10.9232L32.4275 9.44924L35.1885 10.9232C35.3058 10.9819 35.4286 11.0076 35.557 11.0002C35.6853 10.9929 35.8045 10.9507 35.9145 10.8737C36.0245 10.7967 36.1033 10.6977 36.151 10.5767C36.1986 10.4557 36.2115 10.3292 36.1895 10.1972L35.6505 7.07324L37.8945 4.85124C37.9898 4.76324 38.0521 4.65508 38.0815 4.52674C38.1108 4.39841 38.1035 4.27191 38.0595 4.14724C38.0155 4.02258 37.9458 3.91808 37.8505 3.83374C37.7551 3.74941 37.6415 3.69991 37.5095 3.68524L34.4295 3.23424L33.0435 0.385243Z" fill="#FACC15"/>
<path d="M46.4185 0.385243C46.3598 0.26791 46.2755 0.17441 46.1655 0.104743C46.0555 0.0350761 45.9345 0.000243187 45.8025 0.000243187C45.6705 0.000243187 45.5476 0.0350761 45.434 0.104743C45.3203 0.17441 45.2341 0.26791 45.1755 0.385243L43.8005 3.23424L40.7095 3.68524C40.5848 3.69991 40.4711 3.74941 40.3685 3.83374C40.2658 3.91808 40.1961 4.02258 40.1595 4.14724C40.1228 4.27191 40.1191 4.39841 40.1485 4.52674C40.1778 4.65508 40.2401 4.76324 40.3355 4.85124L42.5685 7.07324L42.0405 10.1972C42.0185 10.3292 42.0331 10.4539 42.0845 10.5712C42.1358 10.6886 42.2128 10.7876 42.3155 10.8682C42.4181 10.9489 42.5355 10.9929 42.6675 11.0002C42.7995 11.0076 42.9241 10.9819 43.0415 10.9232L45.8025 9.44924L48.5635 10.9232C48.6808 10.9819 48.8036 11.0076 48.932 11.0002C49.0603 10.9929 49.1795 10.9507 49.2895 10.8737C49.3995 10.7967 49.4783 10.6977 49.526 10.5767C49.5736 10.4557 49.5865 10.3292 49.5645 10.1972L49.0255 7.07324L51.2695 4.85124C51.3648 4.76324 51.4271 4.65508 51.4565 4.52674C51.4858 4.39841 51.4785 4.27191 51.4345 4.14724C51.3905 4.02258 51.3208 3.91808 51.2255 3.83374C51.1301 3.74941 51.0165 3.69991 50.8845 3.68524L47.8045 3.23424L46.4185 0.385243Z" fill="#FACC15"/>
</g>
</g>
</g>
<defs>
<clipPath id="clip0_6314_3949">
<rect width="66.88" height="11" fill="white"/>
</clipPath>
<clipPath id="clip1_6314_3949">
<rect width="66.88" height="11" fill="white" transform="matrix(1 0 0 -1 0 11)"/>
</clipPath>
<clipPath id="clip2_6314_3949">
<rect width="43.73" height="11" fill="white"/>
</clipPath>
<clipPath id="clip3_6314_3949">
<rect width="66.88" height="11" fill="white" transform="matrix(1 0 0 -1 0 11)"/>
</clipPath>
</defs>
</svg>
