<svg width="33" height="33" viewBox="0 0 33 33" fill="none" xmlns="http://www.w3.org/2000/svg">
<rect x="0.519531" y="0.689941" width="32" height="32" rx="6" fill="#1DA1F2"/>
<g clip-path="url(#clip0_6391_480)">
<path d="M22.8748 13.4311C22.885 13.5732 22.885 13.7153 22.885 13.8575C22.885 18.1925 19.5855 23.1874 13.5551 23.1874C11.6972 23.1874 9.97131 22.6493 8.51953 21.7153C8.7835 21.7458 9.03728 21.7559 9.31141 21.7559C10.8444 21.7559 12.2556 21.2382 13.3825 20.3549C11.9408 20.3245 10.7327 19.3803 10.3165 18.0808C10.5195 18.1113 10.7226 18.1316 10.9358 18.1316C11.2302 18.1316 11.5246 18.0909 11.7987 18.0199C10.2962 17.7153 9.16925 16.3955 9.16925 14.8016V14.761C9.60578 15.0047 10.1134 15.157 10.6515 15.1773C9.76822 14.5884 9.18956 13.5833 9.18956 12.4463C9.18956 11.8372 9.35197 11.2788 9.63625 10.7915C11.2505 12.7813 13.6769 14.0808 16.3977 14.2229C16.3469 13.9793 16.3164 13.7255 16.3164 13.4717C16.3164 11.6646 17.7784 10.1925 19.5956 10.1925C20.5398 10.1925 21.3926 10.5884 21.9916 11.228C22.7327 11.0859 23.4433 10.8118 24.0728 10.4362C23.8291 11.1976 23.3113 11.8372 22.6312 12.2433C23.2911 12.1722 23.9307 11.9894 24.5195 11.7357C24.0728 12.3854 23.5144 12.964 22.8748 13.4311Z" fill="white"/>
</g>
<defs>
<clipPath id="clip0_6391_480">
<rect width="16" height="16" fill="white" transform="translate(8.51953 8.68994)"/>
</clipPath>
</defs>
</svg>
